<svg width="45" height="36" viewBox="0 0 45 36" fill="none" xmlns="http://www.w3.org/2000/svg">
<path fill-rule="evenodd" clip-rule="evenodd" d="M18.5834 2.16666C18.5838 1.83645 18.4564 1.51442 18.2192 1.24562C17.982 0.976817 17.6468 0.774707 17.2605 0.667568C16.8741 0.56043 16.4561 0.553625 16.0647 0.648107C15.6734 0.742588 15.3284 0.933628 15.078 1.19449L1.36964 15.4445C1.10222 15.7224 0.957031 16.0645 0.957031 16.4167C0.957031 16.7688 1.10222 17.1109 1.36964 17.3888L15.078 31.6388C15.3284 31.8997 15.6734 32.0907 16.0647 32.1852C16.4561 32.2797 16.8741 32.2729 17.2605 32.1657C17.6468 32.0586 17.982 31.8565 18.2192 31.5877C18.4564 31.3189 18.5838 30.9969 18.5834 30.6667V24.3492C29.1173 24.5265 34.1776 26.1431 36.7195 27.9006C39.1361 29.571 39.5787 31.5359 40.0389 33.5942L40.1584 34.1247C40.2462 34.5042 40.5026 34.8447 40.8793 35.0821C41.256 35.3195 41.7269 35.4374 42.2036 35.4137C42.6803 35.3899 43.1298 35.2262 43.4676 34.9532C43.8054 34.6802 44.0082 34.3169 44.0378 33.9315C44.3727 29.5805 43.8694 23.2757 40.0683 18.0016C36.3788 12.8827 29.7341 8.94649 18.5834 8.53482V2.16666Z" fill="black"/>
</svg>
