<svg width="10" height="11" viewBox="0 0 10 11" fill="none" xmlns="http://www.w3.org/2000/svg">
<path d="M9.34275 9.13924L7.47927 0.734324C7.46245 0.6583 7.43206 0.585114 7.39016 0.519724C7.34826 0.454335 7.29584 0.39827 7.23643 0.355329C7.17703 0.312388 7.11204 0.283573 7.04586 0.270838C6.97968 0.258103 6.91387 0.261745 6.85287 0.281518L0.108895 2.46432C0.0885349 2.47087 0.0710622 2.48439 0.0585589 2.50325C0.0460555 2.52211 0.0390482 2.54552 0.0383715 2.5707C0.0376949 2.59587 0.0433774 2.62175 0.0547425 2.64525C0.0661073 2.66875 0.0826756 2.68888 0.102474 2.70324L1.15295 3.46261C1.21261 3.50573 1.28244 3.5193 1.34498 3.49993L5.7939 2.06053L2.20052 9.85323C2.17244 9.91412 2.19616 9.99769 2.25322 10.0389L3.03135 10.6014C3.08842 10.6427 3.15808 10.6266 3.18615 10.5657L6.77954 2.77302L8.00839 8.31675C8.02497 8.39331 8.06927 8.46223 8.13022 8.5063L9.1807 9.26566C9.26889 9.32941 9.36792 9.25339 9.34275 9.13924Z" fill="#3DBC8D"/>
</svg>
