<svg width="48" height="42" viewBox="0 0 48 42" fill="none" xmlns="http://www.w3.org/2000/svg">
<path d="M23.9213 0L23.4569 0.216718L4.90998 9.77059L0.693146 11.9081L3.14876 13.1172V33.0781C2.26296 33.8697 1.66501 35.3138 1.66501 37.0019C1.66501 38.2119 1.97765 39.3724 2.53417 40.2281C3.09068 41.0837 3.84548 41.5644 4.63251 41.5644C5.41955 41.5644 6.17435 41.0837 6.73086 40.2281C7.28738 39.3724 7.60002 38.2119 7.60002 37.0019C7.60002 35.3138 7.00207 33.8697 6.11627 33.0781V14.6913L9.08378 16.1855V27.8769C9.08378 29.7475 9.82566 31.2987 10.707 32.3709C11.5884 33.4363 12.6834 34.1891 13.998 34.8643C16.6302 36.2103 20.0992 37.0019 23.9213 37.0019C27.7435 37.0019 31.2125 36.2126 33.8447 34.8621C35.1593 34.1891 36.2543 33.4363 37.1356 32.3687C38.017 31.2987 38.7589 29.7475 38.7589 27.8769V16.1855L42.9327 14.0457L47.1495 11.9081L42.9312 9.76831L24.3843 0.216718L23.9213 0ZM23.9213 4.77922L37.8315 11.9081L23.9213 19.037L10.0111 11.9081L23.9213 4.77922ZM12.0513 17.755L23.4584 23.5995L23.9213 23.814L24.3857 23.5973L35.7914 17.7527V27.8769C35.7914 27.8997 35.7973 28.1643 35.327 28.7323C34.8581 29.3027 34.0168 30.0213 32.9158 30.587C30.7169 31.7117 27.4749 32.4394 23.9213 32.4394C20.3677 32.4394 17.1257 31.7139 14.9253 30.5847C13.8273 30.0213 12.9846 29.3004 12.5157 28.7323C12.0439 28.162 12.0513 27.8997 12.0513 27.8769V17.7527V17.755Z" fill="#939393"/>
</svg>
