<svg width="43" height="42" viewBox="0 0 43 42" fill="none" xmlns="http://www.w3.org/2000/svg">
<path d="M21.5021 42C18.6002 42 15.7822 41.4463 13.1322 40.3512C10.5705 39.293 8.27327 37.7754 6.29944 35.8477C4.32562 33.9199 2.77175 31.6764 1.68825 29.1744C0.56695 26.5863 0 23.8342 0 21C0 20.1838 0.67614 19.5234 1.51187 19.5234C2.34759 19.5234 3.02373 20.1838 3.02373 21C3.02373 23.4363 3.51089 25.7988 4.4768 28.026C5.40912 30.1752 6.7404 32.107 8.43705 33.7641C10.1337 35.4211 12.1117 36.7254 14.3123 37.6318C16.5885 38.5711 19.0075 39.0469 21.5021 39.0469C23.9967 39.0469 26.4157 38.5711 28.6961 37.6277C30.8967 36.7172 32.8747 35.417 34.5713 33.76C36.268 32.1029 37.6035 30.1711 38.5316 28.0219C39.4933 25.7988 39.9805 23.4363 39.9805 21C39.9805 18.5637 39.4933 16.2012 38.5274 13.974C37.5982 11.83 36.2535 9.88153 34.5671 8.23594C32.8841 6.58677 30.8886 5.27311 28.6919 4.36816C26.4157 3.42891 23.9967 2.95312 21.5021 2.95312C20.6664 2.95312 19.9902 2.29277 19.9902 1.47656C19.9902 0.660352 20.6664 0 21.5021 0C24.404 0 27.222 0.553711 29.872 1.64883C32.4337 2.70703 34.7309 4.22461 36.7048 6.15234C38.6786 8.08008 40.2282 10.3277 41.3117 12.8256C42.4331 15.4137 43 18.1658 43 21C43 23.8342 42.4331 26.5863 41.3117 29.1744C40.2324 31.6764 38.6786 33.9199 36.7048 35.8477C34.7309 37.7754 32.4295 39.2889 29.872 40.3471C27.222 41.4463 24.404 42 21.5021 42Z" fill="#939393"/>
</svg>
