<svg width="10" height="12" viewBox="0 0 10 12" fill="none" xmlns="http://www.w3.org/2000/svg">
<path d="M9.24279 2.65353L7.33688 10.9415C7.31967 11.0165 7.29036 11.0878 7.25093 11.1507C7.21151 11.2136 7.16289 11.2665 7.10838 11.3059C7.05386 11.3453 6.99471 11.3703 6.93495 11.3792C6.87519 11.388 6.81621 11.3805 6.762 11.3572L0.768437 8.78073C0.750341 8.77299 0.73503 8.75846 0.724329 8.73888C0.713627 8.71931 0.707986 8.6955 0.708077 8.67031C0.708168 8.64512 0.713987 8.6196 0.724841 8.59678C0.735694 8.57397 0.751126 8.55483 0.769297 8.54165L1.73337 7.84459C1.78812 7.80501 1.85118 7.79554 1.90679 7.81857L5.86069 9.51764L2.85098 1.52121C2.82747 1.45873 2.85107 1.37662 2.90344 1.33876L3.61757 0.822421C3.66994 0.784557 3.73203 0.804699 3.75555 0.867183L6.76526 8.86362L8.02213 3.397C8.03913 3.32148 8.08081 3.25521 8.13675 3.21477L9.10083 2.51771C9.18176 2.45919 9.26856 2.54096 9.24279 2.65353Z" fill="#FF5E5E"/>
</svg>
